<svg id="Grupo_6" data-name="Grupo 6" xmlns="http://www.w3.org/2000/svg" xmlns:xlink="http://www.w3.org/1999/xlink" width="260" height="95.338" viewBox="0 0 260 95.338">
  <defs>
    <clipPath id="clip-path">
      <rect id="Retângulo_5" data-name="Retângulo 5" width="260" height="95.338" fill="none"/>
    </clipPath>
  </defs>
  <g id="Grupo_5" data-name="Grupo 5" clip-path="url(#clip-path)">
    <path id="Caminho_5" data-name="Caminho 5" d="M588.159,86.853c-1.157-5.842-11.122-8.163-16.141-9.266q-3.064-.627-6.165-1.013c-4.01-.463-8.146-.7-11.989-1.932a14.038,14.038,0,0,1-4.393-2.152,32.562,32.562,0,0,0,4.008-13.1q3.01-.885,5.977-1.906-2.977.6-5.924,1.335a60.71,60.71,0,0,0-.324-12.562c-.368-3.031-.889-6.035-1.519-9.007a99.756,99.756,0,0,1-2.521-24.451,8.765,8.765,0,0,1,1.46-4.919A10.449,10.449,0,0,0,551.882,6.1a1.717,1.717,0,0,0-.45-1.854,2.6,2.6,0,0,0-2-.547A3.257,3.257,0,0,0,548.5.548,2.624,2.624,0,0,0,545.31.536a4.285,4.285,0,0,0-1.262,2.632c-.013.08-.024.157-.035.236-.966-.61-2.159-1.082-2.958-.113-.956,1.391-.289,3.25.8,4.364.018.494.005,1.039,0,1.561-.041,1.8-.131,3.6-.249,5.393a49.414,49.414,0,0,1-.833,7.1c-.87,3.348-1.538,6.736-2.183,10.129-9.189-6.111-21.414-9.128-32.078-5.37-12.166,3.859-12.546,19.057-10.719,29.563a63.662,63.662,0,0,0,1.862,7.867c-.8,3.49-1.678,6.958-2.779,10.365a18.409,18.409,0,0,1-1.028,2.5c-.816,1.537-2.767,4.02-1.425,5.745,1.032,1.05,2.6.606,3.793,0a3.7,3.7,0,0,0,1.053.591c1.618.52,2.5-.516,2.628-1.848,1.379.319,3.151.089,2.888-1.618a2.159,2.159,0,0,0-.826-1.308c-.34-.236-.664-.344-.893-.55a2.042,2.042,0,0,1-.576-1.155q2.629-2.021,5.415-3.78a18.62,18.62,0,0,1-4.621,11.208,56.165,56.165,0,0,0-4.834,4.724c-1.259,1.532-2.114,3.452-.347,5.039,2.218,2.245,10.54-3.3,12.557-4.936.593-.452,1.151-.964,1.723-1.442a8.022,8.022,0,0,1,1.766-1.029c3.386-1.417,7.046-1.964,10.659-2.81,2.919-.633,5.837-1.328,8.708-2.191a56.548,56.548,0,0,0,8.375-3.221,102.062,102.062,0,0,1-17.307,4.291c-2.959.538-5.905,1.031-8.818,1.86a12.766,12.766,0,0,0-4.278,1.982,36.449,36.449,0,0,1-9.209,5.907,7.819,7.819,0,0,1-2.9.76c-.293-.042-.216-.008-.53-.307-1.027-.973-.119-2.184.564-3.152a62.6,62.6,0,0,1,4.575-4.832,17.946,17.946,0,0,0,4-11.9,108.077,108.077,0,0,1,17.348-8.674c-8.791.559-18.9,5.749-24.174,12.845-.367.506-.729,1.013-1.067,1.534.758-.554,1.469-1.127,2.187-1.716l.058-.044c0,.086.01.171.021.256a1.9,1.9,0,0,0,.409,1.067c.5.549,1.093.74,1.217,1.485.121.562-.1.813-.738.8a5.425,5.425,0,0,1-2.605-1.069L498.61,80.4c-.025.487,0,1.012-.343,1.31a.49.49,0,0,1-.292,0,2.149,2.149,0,0,1-1-.756l-.4-.514a5.117,5.117,0,0,1-2.706.85.956.956,0,0,1,.034-.305,14.9,14.9,0,0,1,1.738-3.27,26.6,26.6,0,0,0,1.872-5.015,104.684,104.684,0,0,0,3.277-22.755c-1.1,4.466-2,8.98-3.02,13.461-.427-2.494-.76-5-.975-7.5-.707-8.9-.761-22,8.326-26.68,10.684-4.944,23.259-2.346,33.469,2.628-.238,1.253-.474,2.506-.716,3.759a4.81,4.81,0,0,0-1.809-1.8,7.346,7.346,0,0,1,1.219,2.173c.554,1.347,1.206,3.338,1.686,4.738.226.634.447,1.272.709,1.9a3.945,3.945,0,0,0-2.58,1.218c1.169-.074,2.484-.339,3.633-.506.266-.049.534-.084.815-.131-.381.564-.7,1.123-.942,1.542a32.683,32.683,0,0,0-1.437,2.975,26.01,26.01,0,0,1,3.849-5.223,3.487,3.487,0,0,1,1.129-.768,21.649,21.649,0,0,1-1.543,7.55c.84,2.745,1.953,5.891.8,8.63-.517,1.144-1.41,2.548-1.431,3.94a5.336,5.336,0,0,1-.527,2.351.827.827,0,0,1-.212.191,3.108,3.108,0,0,0-.1-1.723,7.541,7.541,0,0,0-.931,1.07,8.746,8.746,0,0,1-.741.931c.006.011.014,0,.025.006s.016.006.018.015c0,.034-.135.031-.3-.027-.336-.112-.737-.342-1.23-.546a2.046,2.046,0,0,0,.465,1.363,8.032,8.032,0,0,1-4.855.637c.338-.243.679-.484,1.015-.73-.42.229-.837.463-1.255.7q-.558-.083-1.121-.209.707-.3,1.406-.62c-.649.153-1.294.32-1.938.494a34.741,34.741,0,0,1-7.114-2.873,28.551,28.551,0,0,0,5.787,3.245,62.234,62.234,0,0,0-8.353,3.11,62.328,62.328,0,0,0,9.006-2.858c.379.138.761.265,1.144.377A135.453,135.453,0,0,0,519.3,75.083a135.488,135.488,0,0,0,13.246-8.226,10.219,10.219,0,0,0,5.238.179c-.235,1.927-.676,4.321-2.686,5.024l-1.422.488,1.337.763a4.865,4.865,0,0,0,6.208-1.795,5.159,5.159,0,0,0,.6-3.256,5.863,5.863,0,0,0-.863-2.39c1.861-.288,2.287-1.918,2.426-3.929v-.007q4.014-.853,7.971-1.945a30.07,30.07,0,0,1-4.486,12.886,12.976,12.976,0,0,0,3.371,2.467c4.8,2.355,10.181,2.613,15.379,3.145a67.533,67.533,0,0,1,11.926,2.381c3.092,1.019,8.232,2.821,9.017,6.281a5.753,5.753,0,0,1-1.766,4.864c-2.989,2.547-7.558,2.068-11.235,1.519C564.2,91.717,553.158,87.461,545.57,81.6a21.261,21.261,0,0,1-4.335-4.346c2.437,3.67,6.138,6.31,9.812,8.641a73.174,73.174,0,0,0,10.421,5.156c6.265,2.467,18.564,7.018,24.344,2.083a7.288,7.288,0,0,0,2.347-6.282M538.074,72.177a4.406,4.406,0,0,1-1.082.162,5.953,5.953,0,0,0,.895-5.33,6.86,6.86,0,0,0,.658-.22,1.741,1.741,0,0,0,.433,1.284c.138.162.316.3.562.6a1.382,1.382,0,0,0-.076-2.329c.164-.1.325-.2.484-.318a1.37,1.37,0,0,0,.179-.071c.021-.012.04-.027.061-.04a4.565,4.565,0,0,0,.572-.015c.616,2.486.06,5.571-2.685,6.28m6.673-13.7c1.259-2.961.264-6.276-.745-9.146a13,13,0,0,0,.548-1.816,28.139,28.139,0,0,0,.512-6.563,1.445,1.445,0,0,0-.542-.166c-1.043.021-2.033,1.071-2.808,2.169a2.986,2.986,0,0,0-.977-.316,4.591,4.591,0,0,0-.859-.033,16.074,16.074,0,0,0-2-6.986c.807-3.433,1.631-6.862,2.5-10.28.3-1.165.6-2.328.967-3.464a25.584,25.584,0,0,0,.678-3.6,94.556,94.556,0,0,0,.867-11.075,2.962,2.962,0,0,1-1.045-3.015,1.073,1.073,0,0,1,.109-.182L542,3.966c.061-.061.035-.038.1-.055,1.081.073,2.177,1.251,3.014,1.9.047-1.343.036-5.08,2.188-4.363,1.513.619.4,3.132.044,4.285.819-.2,2.171-.837,2.982-.455a.91.91,0,0,1,.075.055c.008.028.039.03.044.065a.162.162,0,0,0,.022.038c.007.012,0,.021,0,.03s0,.026.006.03a1.748,1.748,0,0,1-.366.546A11.3,11.3,0,0,0,548.7,8a11.344,11.344,0,0,0-1.183,4.675,56.382,56.382,0,0,0-.059,6.889c.229,12.069,4.547,23.765,4.235,35.818-.006.294-.018.588-.03.883a62.456,62.456,0,0,0-7.983,4.4c.019-.048.035-.1.055-.143.26-.617.685-1.273,1.012-2.039m-.277-16.808h0s0,0,0,0M543.411,61.75a4.77,4.77,0,0,1,.165-.783,62.519,62.519,0,0,0,8.074-4.346q-.066,1.368-.219,2.733-4.045,1.074-8.02,2.4" transform="translate(-328.229 0)" fill="#6fa18b"/>
    <path id="Caminho_6" data-name="Caminho 6" d="M583.041,144.643c.588.392,1.2.806,1.856,1.161a10.2,10.2,0,0,0,4.211,1.33,24.15,24.15,0,0,1-3.583-2.3c-.651-.491-1.916-1.582-2.624-1.985a1.678,1.678,0,0,0-2.723,1.066c-.306,2.386,2.469,5.31,4.172,6.681-.562-1.215-3.506-5.749-2.6-6.652a4.352,4.352,0,0,1,1.288.7" transform="translate(-387.067 -95.068)" fill="#6fa18b"/>
    <path id="Caminho_7" data-name="Caminho 7" d="M514.88,263.893c-1,.05-2.8.281-2.831,1.3-.021.7.3.893.649.9a.6.6,0,0,1,.62.62c0,.352.194.67.9.65,1.014-.029,1.245-1.836,1.3-2.831a.582.582,0,0,0-.629-.629" transform="translate(-341.628 -176.064)" fill="#6fa18b"/>
    <path id="Caminho_8" data-name="Caminho 8" d="M651.665,20.945c-.3-.634-.671-.661-.985-.5a.6.6,0,0,1-.833-.272c-.161-.312-.477-.509-1.093-.173-.891.487-.278,2.2.129,3.111a.581.581,0,0,0,.846.275c.864-.5,2.37-1.52,1.936-2.438" transform="translate(-432.53 -13.225)" fill="#6fa18b"/>
    <path id="Caminho_9" data-name="Caminho 9" d="M18.276,143.865q-2.81,2.779-8.99,2.779a16.557,16.557,0,0,1-3.324-.3q-1.429-.3-2.515-.574a5.382,5.382,0,0,1-2.531-1.3A3.367,3.367,0,0,1,0,141.956a2.332,2.332,0,0,1,.947-2.112,4.187,4.187,0,0,1,2.345-.621,6.285,6.285,0,0,1,2.05.419q1.179.42,2.531.854a8.9,8.9,0,0,0,2.748.435,3.362,3.362,0,0,0,2.857-1.04,3.868,3.868,0,0,0,.777-2.376,3.975,3.975,0,0,0-.808-2.485,11.408,11.408,0,0,0-3.416-2.484l-1.086-.59a28.37,28.37,0,0,1-5.389-3.618,8.988,8.988,0,0,1-2.437-3.276A9.336,9.336,0,0,1,.5,121.676q0-4.533,3.028-6.444a15.428,15.428,0,0,1,8.276-1.91,25.56,25.56,0,0,1,3.587.249,16.522,16.522,0,0,1,2.779.59,5.317,5.317,0,0,1,1.987,1.227,2.665,2.665,0,0,1,.838,1.972,3.743,3.743,0,0,1-.947,2.718,3.134,3.134,0,0,1-2.345.978,7.26,7.26,0,0,1-2.873-.684,8.826,8.826,0,0,0-3.556-.683,5.156,5.156,0,0,0-3.044.73,2.209,2.209,0,0,0-.994,1.847,3.968,3.968,0,0,0,.621,2.143,5.086,5.086,0,0,0,2.609,1.739l.746.28a29.912,29.912,0,0,1,5.962,2.857,8.644,8.644,0,0,1,3.028,3.168,8.929,8.929,0,0,1,.885,4.1,9.827,9.827,0,0,1-2.811,7.314" transform="translate(0 -75.606)" fill="#6fa18b"/>
    <path id="Caminho_10" data-name="Caminho 10" d="M92.156,115.931a3.705,3.705,0,0,1-.807,2.842,2.831,2.831,0,0,1-2.05.854,2.565,2.565,0,0,1-2.174-.932,6.515,6.515,0,0,1-.869-3.385l-.776-14.192a12.489,12.489,0,0,0-1.2-5.513,3.224,3.224,0,0,0-2.934-1.692A5.135,5.135,0,0,0,77,96.334q-1.708,2.423-1.709,8.075v10.9a4.919,4.919,0,0,1-.838,3.214,2.7,2.7,0,0,1-2.143.978,2.432,2.432,0,0,1-2.143-.978,6.241,6.241,0,0,1-.776-3.214q-.218-6.273-.326-12.547t-.108-12.515q0-4.347.078-7.748t.108-5.109A4.857,4.857,0,0,1,70.2,73.974a3.551,3.551,0,0,1,2.578-.962A3,3,0,0,1,75.261,74.1a5.006,5.006,0,0,1,.746,3.416l-.559,10.466a3.547,3.547,0,0,0,.249,1.848,1.019,1.019,0,0,0,.932.512q.9,0,1.863-1.553a8.186,8.186,0,0,1,2.469-2.7,6.6,6.6,0,0,1,8.82,2.034,15.116,15.116,0,0,1,2,8.028Z" transform="translate(-46.007 -48.712)" fill="#6fa18b"/>
    <path id="Caminho_11" data-name="Caminho 11" d="M153.766,118.2q-.063-2.92.9-3.9a3.621,3.621,0,0,1,2.7-.978,3.45,3.45,0,0,1,2.547.994q.994.994.931,3.944l-.683,24.813q-.092,3.447-2.919,3.447-2.795,0-2.888-3.447Z" transform="translate(-102.587 -75.606)" fill="#6fa18b"/>
    <path id="Caminho_12" data-name="Caminho 12" d="M186.961,140.48q-1.554-3.556-1.553-10.2v-.621a20.8,20.8,0,0,1,1.754-9.254,11.523,11.523,0,0,1,4.612-5.109,12.386,12.386,0,0,1,6.149-1.6q6.055,0,8.726,2.547a8.879,8.879,0,0,1,2.671,6.739,3.743,3.743,0,0,1-1.071,2.888,4.145,4.145,0,0,1-2.934.994,2.6,2.6,0,0,1-2.128-.885,7.674,7.674,0,0,1-1.257-2.749,5.173,5.173,0,0,0-1.46-2.733,3.467,3.467,0,0,0-2.143-.652,4.715,4.715,0,0,0-2.95,1.165,8.347,8.347,0,0,0-2.407,3.664,18.671,18.671,0,0,0-.947,6.506v.714a14.466,14.466,0,0,0,1.335,6.522,4.452,4.452,0,0,0,4.255,2.671,4.607,4.607,0,0,0,2.9-.948,5.682,5.682,0,0,0,1.754-3.431,9.343,9.343,0,0,1,.963-2.733,2.513,2.513,0,0,1,2.392-1.087A2.961,2.961,0,0,1,208.032,134a4.614,4.614,0,0,1,.916,3.012,9.152,9.152,0,0,1-2.919,6.91q-2.919,2.779-8.415,2.779a14.388,14.388,0,0,1-6.336-1.336,9.2,9.2,0,0,1-4.316-4.891" transform="translate(-123.7 -75.854)" fill="#6fa18b"/>
    <path id="Caminho_13" data-name="Caminho 13" d="M289.041,115.931a3.705,3.705,0,0,1-.807,2.842,2.831,2.831,0,0,1-2.05.854,2.565,2.565,0,0,1-2.174-.932,6.515,6.515,0,0,1-.869-3.385l-.776-14.192a12.488,12.488,0,0,0-1.2-5.513,3.223,3.223,0,0,0-2.934-1.692,5.135,5.135,0,0,0-4.348,2.422q-1.708,2.423-1.709,8.075v10.9a4.919,4.919,0,0,1-.838,3.214,2.7,2.7,0,0,1-2.143.978,2.432,2.432,0,0,1-2.143-.978,6.241,6.241,0,0,1-.776-3.214q-.218-6.273-.326-12.547t-.108-12.515q0-4.347.078-7.748t.109-5.109a4.857,4.857,0,0,1,1.055-3.416,3.552,3.552,0,0,1,2.578-.962,3,3,0,0,1,2.484,1.087,5.006,5.006,0,0,1,.746,3.416l-.559,10.466a3.547,3.547,0,0,0,.249,1.848,1.019,1.019,0,0,0,.932.512q.9,0,1.863-1.553a8.186,8.186,0,0,1,2.469-2.7,6.6,6.6,0,0,1,8.82,2.034,15.116,15.116,0,0,1,2,8.028Z" transform="translate(-177.364 -48.712)" fill="#6fa18b"/>
    <path id="Caminho_14" data-name="Caminho 14" d="M350.653,118.2q-.063-2.92.9-3.9a3.621,3.621,0,0,1,2.7-.978,3.45,3.45,0,0,1,2.547.994q.994.994.931,3.944l-.683,24.813q-.092,3.447-2.919,3.447-2.795,0-2.888-3.447Z" transform="translate(-233.946 -75.606)" fill="#6fa18b"/>
    <path id="Caminho_15" data-name="Caminho 15" d="M383.845,140.48q-1.554-3.556-1.553-10.2v-.621a20.8,20.8,0,0,1,1.754-9.254,11.523,11.523,0,0,1,4.612-5.109,12.386,12.386,0,0,1,6.149-1.6q6.055,0,8.726,2.547a8.879,8.879,0,0,1,2.671,6.739,3.743,3.743,0,0,1-1.071,2.888,4.144,4.144,0,0,1-2.934.994,2.6,2.6,0,0,1-2.128-.885,7.674,7.674,0,0,1-1.257-2.749,5.173,5.173,0,0,0-1.46-2.733,3.467,3.467,0,0,0-2.143-.652,4.715,4.715,0,0,0-2.95,1.165,8.347,8.347,0,0,0-2.407,3.664,18.671,18.671,0,0,0-.947,6.506v.714a14.467,14.467,0,0,0,1.335,6.522,4.452,4.452,0,0,0,4.255,2.671,4.607,4.607,0,0,0,2.9-.948,5.682,5.682,0,0,0,1.754-3.431,9.341,9.341,0,0,1,.963-2.733,2.513,2.513,0,0,1,2.392-1.087A2.961,2.961,0,0,1,404.916,134a4.614,4.614,0,0,1,.916,3.012,9.152,9.152,0,0,1-2.919,6.91q-2.919,2.779-8.415,2.779a14.388,14.388,0,0,1-6.336-1.336,9.2,9.2,0,0,1-4.316-4.891" transform="translate(-255.057 -75.854)" fill="#6fa18b"/>
    <path id="Caminho_16" data-name="Caminho 16" d="M158.927,78.3a3.814,3.814,0,0,1,1.3,2.95,3.065,3.065,0,0,1-1.257,2.687,6.278,6.278,0,0,1-3,1.071,3.665,3.665,0,0,1-3.106-.761,3.932,3.932,0,0,1-.963-2.873,4.229,4.229,0,0,1,1.134-3.106,3.79,3.79,0,0,1,2.81-1.149,4.433,4.433,0,0,1,3.075,1.181" transform="translate(-101.35 -51.451)" fill="#6fa18b"/>
    <path id="Caminho_17" data-name="Caminho 17" d="M355.814,78.3a3.814,3.814,0,0,1,1.3,2.95,3.065,3.065,0,0,1-1.257,2.687,6.278,6.278,0,0,1-3,1.071,3.665,3.665,0,0,1-3.106-.761,3.932,3.932,0,0,1-.963-2.873,4.229,4.229,0,0,1,1.134-3.106,3.79,3.79,0,0,1,2.81-1.149,4.433,4.433,0,0,1,3.075,1.181" transform="translate(-232.709 -51.451)" fill="#6fa18b"/>
  </g>
</svg>
