<svg id="Componente_6_1" data-name="Componente 6 – 1" xmlns="http://www.w3.org/2000/svg" xmlns:xlink="http://www.w3.org/1999/xlink" width="30" height="30" viewBox="0 0 30 30">
  <defs>
    <clipPath id="clip-path">
      <rect id="Retângulo_3" data-name="Retângulo 3" width="30" height="30" transform="translate(0)" fill="#6fa18b"/>
    </clipPath>
  </defs>
  <g id="Grupo_1" data-name="Grupo 1" clip-path="url(#clip-path)">
    <path id="Caminho_1" data-name="Caminho 1" d="M22.5,0H7.5A7.427,7.427,0,0,0,0,7.5v15A7.427,7.427,0,0,0,7.5,30h15A7.427,7.427,0,0,0,30,22.5V7.5A7.427,7.427,0,0,0,22.5,0M27,22.5A4.42,4.42,0,0,1,22.5,27H7.5A4.42,4.42,0,0,1,3,22.5V7.5A4.42,4.42,0,0,1,7.5,3h15A4.42,4.42,0,0,1,27,7.5Z" fill="#6fa18b"/>
    <path id="Caminho_2" data-name="Caminho 2" d="M103.5,96a7.5,7.5,0,1,0,7.5,7.5,7.427,7.427,0,0,0-7.5-7.5m0,12a4.5,4.5,0,1,1,4.5-4.5,4.42,4.42,0,0,1-4.5,4.5" transform="translate(-88.5 -88.5)" fill="#6fa18b"/>
    <path id="Caminho_3" data-name="Caminho 3" d="M271.8,78.3a1.5,1.5,0,1,1-1.5-1.5,1.5,1.5,0,0,1,1.5,1.5" transform="translate(-247.801 -70.801)" fill="#6fa18b"/>
  </g>
</svg>
