<svg id="Componente_8_1" data-name="Componente 8 – 1" xmlns="http://www.w3.org/2000/svg" xmlns:xlink="http://www.w3.org/1999/xlink" width="37.363" height="27" viewBox="0 0 37.363 27">
  <defs>
    <clipPath id="clip-path">
      <rect id="Retângulo_42" data-name="Retângulo 42" width="37.363" height="27" fill="#6fa18b"/>
    </clipPath>
  </defs>
  <g id="Grupo_51" data-name="Grupo 51" clip-path="url(#clip-path)">
    <path id="Caminho_154" data-name="Caminho 154" d="M18.68,27h-.01c-1.127-.008-11.094-.1-13.918-.862a5.775,5.775,0,0,1-4.063-4.06A42.377,42.377,0,0,1,0,13.536,43.172,43.172,0,0,1,.687,4.931l0-.008A5.9,5.9,0,0,1,4.747.835l.015,0C7.554.1,17.54.008,18.67,0h.02c1.13.008,11.124.1,13.921.863A5.773,5.773,0,0,1,36.67,4.918c.767,2.8.7,8.2.688,8.651a42.5,42.5,0,0,1-.684,8.529l0,.008a5.776,5.776,0,0,1-4.065,4.061l-.008,0c-2.792.733-12.778.823-13.908.831ZM3.508,5.679a41.741,41.741,0,0,0-.587,7.838v.039a39.244,39.244,0,0,0,.587,7.766,2.846,2.846,0,0,0,2,2c2.084.564,10.2.741,13.168.762,2.975-.021,11.1-.193,13.172-.734a2.848,2.848,0,0,0,2-2,39.354,39.354,0,0,0,.587-7.766c0-.015,0-.031,0-.046a38,38,0,0,0-.585-7.85V5.682a2.848,2.848,0,0,0-2.005-2c-2.063-.564-10.194-.741-13.168-.762-2.973.021-11.094.193-13.168.733a2.928,2.928,0,0,0-2,2.027M35.262,21.726h0Zm-20.3-2.315V7.589L25.176,13.5Z" transform="translate(0)" fill="#6fa18b"/>
  </g>
</svg>
