<svg id="Grupo_41" data-name="Grupo 41" xmlns="http://www.w3.org/2000/svg" xmlns:xlink="http://www.w3.org/1999/xlink" width="2699.356" height="1278.551" viewBox="0 0 2699.356 1278.551">
  <defs>
    <clipPath id="clip-path">
      <rect id="Retângulo_26" data-name="Retângulo 26" width="2699.356" height="1278.551" fill="#89725b"/>
    </clipPath>
  </defs>
  <g id="Grupo_40" data-name="Grupo 40" clip-path="url(#clip-path)">
    <path id="Caminho_126" data-name="Caminho 126" d="M677.147,102.433H303.86a2.7,2.7,0,0,1,0-5.406H677.147a2.7,2.7,0,0,1,0,5.406" transform="translate(512.877 165.239)" fill="#89725b"/>
    <path id="Caminho_127" data-name="Caminho 127" d="M1421.219,102.433H572.678a2.7,2.7,0,0,1,0-5.406h848.541a2.7,2.7,0,0,1,0,5.406" transform="translate(970.68 165.239)" fill="#89725b"/>
    <path id="Caminho_128" data-name="Caminho 128" d="M136.6,61.825a2.7,2.7,0,0,1-.014-5.406l694.847-3.433h.014a2.7,2.7,0,0,1,.013,5.406L136.616,61.825Z" transform="translate(228.033 90.236)" fill="#89725b"/>
    <path id="Caminho_129" data-name="Caminho 129" d="M1072.4,58.392H621.745a2.7,2.7,0,0,1,0-5.406H1072.4a2.7,2.7,0,1,1,0,5.406" transform="translate(1054.242 90.236)" fill="#89725b"/>
    <path id="Caminho_130" data-name="Caminho 130" d="M582.153,220H208.866a2.7,2.7,0,1,1,0-5.406H582.153a2.7,2.7,0,0,1,0,5.406" transform="translate(351.1 365.451)" fill="#89725b"/>
    <path id="Caminho_131" data-name="Caminho 131" d="M1326.224,220H477.684a2.7,2.7,0,1,1,0-5.406h848.54a2.7,2.7,0,1,1,0,5.406" transform="translate(808.903 365.451)" fill="#89725b"/>
    <path id="Caminho_132" data-name="Caminho 132" d="M41.608,179.388a2.7,2.7,0,0,1-.014-5.406l694.847-3.433h.013a2.7,2.7,0,0,1,.013,5.406L41.622,179.388Z" transform="translate(66.256 290.449)" fill="#89725b"/>
    <path id="Caminho_133" data-name="Caminho 133" d="M977.406,175.955H526.75a2.7,2.7,0,1,1,0-5.406H977.406a2.7,2.7,0,0,1,0,5.406" transform="translate(892.463 290.449)" fill="#89725b"/>
    <path id="Caminho_134" data-name="Caminho 134" d="M2.7,1276.55a2.7,2.7,0,0,1-2.371-4L623.58,1.414A2.7,2.7,0,1,1,628.326,4L5.077,1275.142A2.7,2.7,0,0,1,2.7,1276.55" transform="translate(-0.001 0.003)" fill="#89725b"/>
    <path id="Caminho_135" data-name="Caminho 135" d="M177.85,1276.551a2.7,2.7,0,0,1-2.608-3.414L708.585,2A2.7,2.7,0,1,1,713.8,3.417L180.455,1274.559a2.7,2.7,0,0,1-2.606,1.992" transform="translate(298.277 0.002)" fill="#89725b"/>
    <path id="Caminho_136" data-name="Caminho 136" d="M517.047,1277.9a2.7,2.7,0,0,1-2.7-2.7V2.705a2.7,2.7,0,0,1,5.406,0V1275.2a2.7,2.7,0,0,1-2.7,2.7" transform="translate(875.939 0.003)" fill="#89725b"/>
    <path id="Caminho_137" data-name="Caminho 137" d="M850.008,587.154a2.7,2.7,0,0,1-2.606-1.992L656.323,3.418A2.7,2.7,0,0,1,661.54,2L852.619,583.74a2.7,2.7,0,0,1-2.611,3.414" transform="translate(1117.57 0.002)" fill="#89725b"/>
    <path id="Caminho_138" data-name="Caminho 138" d="M1337.45,1278.549a2.7,2.7,0,0,1-2.376-1.408L798.444,4a2.7,2.7,0,1,1,4.747-2.587l536.631,1273.136a2.7,2.7,0,0,1-2.371,4" transform="translate(1359.203 0.002)" fill="#89725b"/>
    <path id="Caminho_139" data-name="Caminho 139" d="M2163.867,5.408H136.6A2.7,2.7,0,0,1,136.6,0H2163.867a2.7,2.7,0,0,1,0,5.406" transform="translate(228.031 0.003)" fill="#89725b"/>
  </g>
</svg>
