<svg xmlns="http://www.w3.org/2000/svg" xmlns:xlink="http://www.w3.org/1999/xlink" width="765.696" height="490.615" viewBox="0 0 765.696 490.615">
  <defs>
    <clipPath id="clip-path">
      <rect id="Retângulo_13" data-name="Retângulo 13" width="765.696" height="490.615" fill="none"/>
    </clipPath>
  </defs>
  <g id="Grupo_38" data-name="Grupo 38" transform="translate(0 0.001)">
    <g id="Grupo_8" data-name="Grupo 8" transform="translate(0 -0.001)" clip-path="url(#clip-path)">
      <path id="Caminho_18" data-name="Caminho 18" d="M41.48,276.3H763.959c12.895,0-50.2,33.607-50.2,33.607H3.486C-14.252,309.9,41.48,276.3,41.48,276.3" transform="translate(0 180.712)"/>
      <path id="Caminho_19" data-name="Caminho 19" d="M56.636,237.709,42.568,299.527A13.011,13.011,0,0,0,66.2,309.447l46.093-71.738Z" transform="translate(27.626 155.474)" fill="#aa2a14"/>
      <path id="Caminho_20" data-name="Caminho 20" d="M284.084,237.709l-14.068,61.818a13.011,13.011,0,0,0,23.633,9.919l46.093-71.738Z" transform="translate(176.387 155.474)" fill="#aa2a14"/>
      <path id="Caminho_21" data-name="Caminho 21" d="M434.19,237.709l14.068,61.818a13.011,13.011,0,0,1-23.633,9.919l-46.093-71.738Z" transform="translate(247.577 155.474)" fill="#aa2a14"/>
      <path id="Caminho_22" data-name="Caminho 22" d="M246.3,237.709l14.068,61.818a13.011,13.011,0,0,1-23.633,9.919l-46.093-71.738Z" transform="translate(124.691 155.474)" fill="#274c60"/>
      <path id="Caminho_23" data-name="Caminho 23" d="M697.362,259.279H35.864a10.785,10.785,0,1,1,0-21.57h661.5a10.785,10.785,0,1,1,0,21.57" transform="translate(16.402 155.474)" fill="#aa2a14"/>
      <rect id="Retângulo_9" data-name="Retângulo 9" width="661.498" height="370.991" transform="translate(52.266 22.192)" fill="#aa2a14"/>
      <rect id="Retângulo_10" data-name="Retângulo 10" width="661.498" height="13.925" transform="translate(52.266 379.258)" fill="#000413"/>
      <rect id="Retângulo_11" data-name="Retângulo 11" width="13.307" height="370.991" transform="translate(52.266 22.192)" fill="#f9f9f9"/>
      <rect id="Retângulo_12" data-name="Retângulo 12" width="270.716" height="337.197" transform="translate(443.048 22.192)" fill="#fbbe5b"/>
      <path id="Caminho_24" data-name="Caminho 24" d="M539.942,20.973H266.382a.62.62,0,1,1,0-1.241h273.56a.62.62,0,0,1,0,1.241" transform="translate(173.821 12.907)" fill="#aa2a14"/>
      <path id="Caminho_25" data-name="Caminho 25" d="M539.942,40.021H266.382a.62.62,0,1,1,0-1.241h273.56a.62.62,0,0,1,0,1.241" transform="translate(173.821 25.366)" fill="#aa2a14"/>
      <path id="Caminho_26" data-name="Caminho 26" d="M539.942,59.069H266.382a.62.62,0,1,1,0-1.241h273.56a.62.62,0,0,1,0,1.241" transform="translate(173.821 37.824)" fill="#aa2a14"/>
      <path id="Caminho_27" data-name="Caminho 27" d="M539.942,78.117H266.382a.62.62,0,1,1,0-1.241h273.56a.62.62,0,0,1,0,1.241" transform="translate(173.821 50.282)" fill="#aa2a14"/>
      <path id="Caminho_28" data-name="Caminho 28" d="M539.942,97.164H266.382a.62.62,0,1,1,0-1.241h273.56a.62.62,0,0,1,0,1.241" transform="translate(173.821 62.74)" fill="#aa2a14"/>
      <path id="Caminho_29" data-name="Caminho 29" d="M539.942,116.212H266.382a.62.62,0,1,1,0-1.241h273.56a.62.62,0,0,1,0,1.241" transform="translate(173.821 75.198)" fill="#aa2a14"/>
      <path id="Caminho_30" data-name="Caminho 30" d="M539.942,135.26H266.382a.62.62,0,0,1,0-1.241h273.56a.62.62,0,0,1,0,1.241" transform="translate(173.821 87.656)" fill="#aa2a14"/>
      <path id="Caminho_31" data-name="Caminho 31" d="M539.942,154.308H266.382a.62.62,0,1,1,0-1.241h273.56a.62.62,0,0,1,0,1.241" transform="translate(173.821 100.115)" fill="#aa2a14"/>
      <path id="Caminho_32" data-name="Caminho 32" d="M539.942,173.356H266.382a.62.62,0,0,1,0-1.241h273.56a.62.62,0,0,1,0,1.241" transform="translate(173.821 112.573)" fill="#aa2a14"/>
      <path id="Caminho_33" data-name="Caminho 33" d="M539.942,192.4H266.382a.62.62,0,0,1,0-1.241h273.56a.62.62,0,0,1,0,1.241" transform="translate(173.821 125.031)" fill="#aa2a14"/>
      <path id="Caminho_34" data-name="Caminho 34" d="M539.942,211.452H266.382a.62.62,0,0,1,0-1.241h273.56a.62.62,0,0,1,0,1.241" transform="translate(173.821 137.489)" fill="#aa2a14"/>
      <path id="Caminho_35" data-name="Caminho 35" d="M348.521,300.759h-105a121.275,121.275,0,1,1,0-242.549h105Z" transform="translate(79.953 38.074)" fill="#000413"/>
      <path id="Caminho_36" data-name="Caminho 36" d="M259.046,58.21h105a121.275,121.275,0,0,1,0,242.549h-105Z" transform="translate(169.428 38.074)" fill="#000413"/>
      <path id="Caminho_37" data-name="Caminho 37" d="M332.519,58.21H307.253a121.275,121.275,0,1,1,0,242.549h25.266a121.275,121.275,0,0,0,0-242.549" transform="translate(200.958 38.074)" fill="#aa2a14"/>
      <line id="Linha_1" data-name="Linha 1" y2="370.991" transform="translate(428.474 22.192)" fill="none" stroke="#000" stroke-linecap="round" stroke-linejoin="round" stroke-width="0.75"/>
      <line id="Linha_2" data-name="Linha 2" y2="242.549" transform="translate(516.131 96.284)" fill="none" stroke="#fffeff" stroke-linecap="round" stroke-linejoin="round" stroke-width="0.75"/>
      <path id="Caminho_38" data-name="Caminho 38" d="M263.311,259.279a10.785,10.785,0,1,1,0-21.57" transform="translate(165.163 155.474)" fill="none" stroke="#000" stroke-linecap="round" stroke-linejoin="round" stroke-width="0.75"/>
      <path id="Caminho_39" data-name="Caminho 39" d="M697.362,21.945H35.864a10.785,10.785,0,1,1,0-21.57h661.5a10.785,10.785,0,1,1,0,21.57" transform="translate(16.402 0.247)" fill="#aa2a14"/>
      <path id="Caminho_40" data-name="Caminho 40" d="M263.311,21.945a10.785,10.785,0,1,1,0-21.57" transform="translate(165.163 0.247)" fill="none" stroke="#000" stroke-linecap="round" stroke-linejoin="round" stroke-width="0.75"/>
      <path id="Caminho_41" data-name="Caminho 41" d="M170.749,181.277s44.517,9.357,68.084,22.832" transform="translate(111.678 118.565)" fill="none" stroke="#000" stroke-linecap="round" stroke-linejoin="round" stroke-width="0.75"/>
      <path id="Caminho_42" data-name="Caminho 42" d="M264.988,191.679S294.6,181.5,350.11,189.357" transform="translate(173.314 121.901)" fill="none" stroke="#000" stroke-linecap="round" stroke-linejoin="round" stroke-width="0.75"/>
      <path id="Caminho_43" data-name="Caminho 43" d="M247.815,187.837s-25.426-5.281-35.9-3.732" transform="translate(138.6 120.229)" fill="none" stroke="#000" stroke-linecap="round" stroke-linejoin="round" stroke-width="0.75"/>
    </g>
  </g>
</svg>
